<svg height="26" viewBox="0 0 42 26" width="42" xmlns="http://www.w3.org/2000/svg" xmlns:xlink="http://www.w3.org/1999/xlink"><linearGradient id="a" x1="-.142045%" x2="101.775568%" y1="49.932886%" y2="49.932886%"><stop offset="0" stop-color="#f99d27" stop-opacity="0"/><stop offset=".02" stop-color="#f89627" stop-opacity=".06"/><stop offset=".12" stop-color="#f37a27" stop-opacity=".28"/><stop offset=".23" stop-color="#ef6227" stop-opacity=".47"/><stop offset=".33" stop-color="#eb4d26" stop-opacity=".63"/><stop offset=".45" stop-color="#e83c26" stop-opacity=".77"/><stop offset=".56" stop-color="#e62f26" stop-opacity=".87"/><stop offset=".69" stop-color="#e42626" stop-opacity=".94"/><stop offset=".82" stop-color="#e32126" stop-opacity=".99"/><stop offset="1" stop-color="#e31f26"/></linearGradient><g fill="none" fill-rule="evenodd"><path d="m0 0h42v26h-42z" fill="#fff" fill-rule="evenodd"/><path d="m.5.5h41v25h-41z" stroke="#e5e5e5"/><g fill-rule="nonzero" transform="translate(11 4)"><path d="m8.28580645 8.4253125-2.97870968-5.51c-.12897403-.2485185-.19485944-.52617448-.1916129-.8075v4.75c-.00319971 2.825306-2.24221349 5.1148531-5.00516129 5.118125v3.4021875c4.00346014-.0118718 7.43442564-2.9297248 8.17548387-6.9528125z" fill="#ff9e16"/><path d="m8.28580645 8.4253125-2.97870968-5.51c-.12897403-.2485185-.19485944-.52617448-.1916129-.8075v4.75c-.00319971 2.825306-2.24221349 5.1148531-5.00516129 5.118125v3.4021875c4.00346014-.0118718 7.43442564-2.9297248 8.17548387-6.9528125z" fill="url(#a)"/><path d="m17.4019355 1.9c.1874606.00127176.3577584-.1114154.4334267-.2868012.0756683-.17538581.0422554-.37997375-.0850396-.5206988-.0873279-.10335787-.2148212-.16202472-.3483871-.1603125-.1164053-.00176587-.2288935.04296687-.3135484.1246875-.0995282.08794931-.1567456.21580179-.1567742.3503125-.00297.13146149.0474866.25829998.1393548.3503125.0864067.09210623.2061559.1436649.3309678.1425zm-.2845161-.7184375c.0650991-.09442757.1715427-.14996122.2845161-.1484375.0921444-.00276432.1817124.0313155.2496774.095.143162.14804649.143162.38632851 0 .534375-.1447789.14639309-.3778017.14639309-.5225806 0-.0759083-.07230943-.1199043-.17299919-.1219355-.2790625.0153708-.07737778.0539311-.14793788.1103226-.201875zm.2845161.5165625c.0775769-.00200121.1509882-.03631809.2032258-.095l-.0812903-.0771875-.0754839.0653125h-.063871c-.0434775.00132579-.0855394-.01587872-.116129-.0475-.0318306-.03310677-.048673-.07831578-.0464516-.1246875-.0015335-.04625728.0152089-.09119818.0464516-.1246875.0305896-.03162128.0726515-.04882579.116129-.0475.0522581 0 .0812904 0 .1393549.0771875l.0812903-.0771875c-.0478146-.06867861-.1214636-.11386532-.2032258-.1246875-.0749193-.00159639-.1473111.02772408-.2008419.08134595s-.0836905.12702728-.0836742.20365405c-.0000163.07662677.0301434.15003218.0836742.20365405s.1259226.08294234.2008419.08134595z" fill="#f15623"/><path d="m15.8574194 18.085625-.1219355.1009375zm-.3309678.249375.063871-.0415625-.1161291.0653125zm.5458065-.4928125-.1045162.130625zm-.8651613.6175-.1045162.0296875zm-1.6548387-.4275-.0348387-.0415625zm.4064516.3028125-.0987097-.0534375zm2.2819355-.771875c0 .0475-.0464517.095-.0754839.1425zm-1.9045162.92625-.1045161-.035625zm2.0032258-1.235c0 .0534375-.0290322.106875-.0464516.154375z" fill="#9b282d"/><path d="m16.3916129 16.9159375c.0032541.061309.0032541.1227535 0 .1840625.0032771-.0613084.0032771-.1227541 0-.1840625zm-11.08451613-14.000625 2.97870968 5.51 4.98774195 9.226875.0348387.0475c-.1506803-.2586847-.2308766-.5539074-.2322581-.855v-6.6025l-4.84258061-8.9478125c-.36322397-.68004169-1.13056466-1.02240974-1.86513272-.83217515-.73456807.19023458-1.25004106.86481899-1.2529318 1.63967515-.00422467.28332956.06168973.56315021.1916129.8134375z" fill="#9b282d"/><path d="m13.3025806 17.69375c.060488.1087205.132538.2102741.2148388.3028125l.0348387.0415625c.0929332.0931548.1962177.1748573.3077419.2434375l.0987097.0534375c.0891424.0482459.1824394.087997.2787097.11875l.1045161.035625c.1271449.0335319.2577408.0514706.3890322.0534375.1172383-.0012394.2340185-.0151712.3483871-.0415625l.1045162-.0296875c.0899252-.027919.1773425-.0636751.2612903-.106875l.116129-.0653125.1451613-.1009375.1219355-.1009375.1103226-.11875.1045161-.130625.0870968-.1365625c0-.0475.052258-.095.0754839-.1425l.0580645-.154375.0464516-.154375s0-.1009375.0290322-.154375c.0032542-.061309.0032542-.1227535 0-.1840625v-14.8140625c.0365143-.63172567-.2723288-1.23211648-.8020853-1.55925353-.5297566-.32713704-1.1931695-.32713704-1.7229261 0-.5297565.32713705-.8385996.92752786-.8020853 1.55925353v14.7309375c.0187714.3067284.1191619.6023787.2903225.855z" fill="#f15623"/></g></g></svg>