<svg height="26" viewBox="0 0 42 26" width="42" xmlns="http://www.w3.org/2000/svg"><g fill="none" fill-rule="evenodd"><path d="m0 0h42v26h-42z" fill="#ffde00"/><g fill-rule="nonzero" transform="translate(8 3)"><g fill="#fff" transform="translate(1.075862)"><path d="m19.216092 14.9948424-4.2616092 5.6080229-5.82160924-2.5512894-.46022988-.2106017-8.31402299-3.6644699 5.09241379-1.3598854-2.22344827-8.85128939 13.68137929-3.5982808 2.4087356 8.93553009 5.2597702-1.38395416-5.0505747 6.65501436z"/><path d="m14.9783908 20.9578797c-.0418391 0-.0836782 0-.1255172-.0180516l-5.82160923-2.5512894-.46022989-.2106017-8.33195402-3.6885387c-.12551724-.0601719-.2091954-.186533-.2091954-.3369628.01793103-.1444126.10160919-.2707736.25103448-.2948424l4.76367816-1.2756447-2.12183908-8.53839539c-.04183908-.18653295.05977012-.35501433.25103448-.39713467l13.6813793-3.5982808c.1852874-.04212035.3526437.06017192.4183908.22865329l2.3011494 8.6286533 4.9250575-1.29971347c.1434483-.04212034.2928736.01805157.3526437.14441261.0836782.12636103.0836782.27077364-.017931.39713467l-5.0505748 6.65501436-.3108046.4212034-4.2616091 5.6320917c-.0478161.0421203-.1494253.1022923-.2331035.1022923zm-13.59770114-6.6971347 7.44137931 3.2853868.46022988.2106017 5.57057475 2.4489972 4.0942528-5.3974212.3108046-.4212035 4.4708046-5.87879654-4.3213793 1.13123209c-.1852873.04212034-.3526437-.06017192-.4183908-.2286533l-2.3071264-8.62865329-13.03586209 3.41174785 2.13977012 8.52034379c.04183908.186533-.05977012.3550144-.22712644.3971347z"/></g><path d="m3.6203 10.994939h2.701556v1.799105h-2.701556z" fill="#fff" transform="matrix(-.97871922 .20520403 -.20520403 -.97871922 12.277165 22.515773)"/><path d="m4.30942529 3.96532951 13.68137931-3.5982808 2.4087356 8.93553009 5.2597701-1.38395416-5.0505747 6.65501436-.0597701.0180515s-.4602299.1263611-.6036781.0421204c-.1434483-.0842407.1673563-.6679083.3347126-1.065043s.4781609-1.3598854.7471264-1.9074498c.2689656-.5415473.6634483-.9808023.7710345-1.0229227.1075862-.0421203.1673563-.4212034.1255173-.5836676-.0418391-.16246419 0-.35501433-.1673564-.35501433-.1673563 0-.2928735.49942693-.52.79426933-.2271264.2948424-.7471264 1.2997135-1.1834482 2.1962751-.4363219.9206304-1.2910345 1.943553-1.7273564 2.3888252-.4602298.3790831-.0836781-.3369628-.041839-.5415473.041839-.2106017.3108046-.7942693.3108046-.7942693s.3765517-.4212035-.1016092-.2707737c-.478161.1444126-.9144828.8604585-.9144828.8604585s-1.1834483 1.4862464-1.6018391 1.7810888-.3108046-.1684814-.2271264-.625788c.0836781-.4633237.6036781-1.004871.6036781-1.004871l.2091955-.0842407s-.1255173.4633238-.0179311.439255.2271265-.2106017.2510345-.3790831c.017931-.1684814 0-.8604584-.1255172-.7762177-.1255173.0842406-.7889656.691977-.998161.9446991s-.9563218 1.191404-1.2252873 1.630659-.0836782-.2286533-.0836782-.2286533.1016092-.3790831.1255173-.5415473c.017931-.1684813-.2091954-.0842406-.2091954-.0842406l-.3108046.3128939s-.0597702.060172-.0597702.312894c0 .2527221-.3108046.6077364-.6216091.7942694-.3108046.1865329-.1852874-.1684814-.1852874-.1684814s.1016092-.439255.4183908-.9627507c.3108046-.5234957.6455172-.5656161.8308046-.6498568.1852874-.0842406.1016092-.2106017.0418391-.3128939-.0597701-.1022923-.2689655-.0180516-.3347127.0180515-.1434482.1022923-2.4505747 2.0699141-2.5581609 2.4068768-.1075862.3369628.2271265.0842407.2271265.0842407l.9144827-1.004871.0418391-.0421204-.017931.2286533s-.2689656.4813754-.2091954.8183381c.0597701.2707737.2689655.2106017.4183908.2106017.1434482-.0180515.4363218-.439255.6216092-.5836676.1852873-.1444126.2091954.0180516.2689655.1444126.0597701.1263611.3347126-.0421203.3347126-.0421203s.6216092-.8604585.7710345-1.0469914c.1434483-.186533.3347126-.186533.3347126-.186533s-.0836781.2527221.1255173.5836676c.2091954.3369628.5797701.0842407.8128735-.0601719.2331035-.1444126.9563219-1.065043 1.1236782-1.2997134.1673563-.2346705.3944828-.2707737.3944828-.2707737s-.1255173.7340974-.0836782.9206304c.0418391.1865329.3526437.2286533.7291954-.126361.3765517-.3550144 1.1655172-1.5283668 1.1655172-1.5283668s-.2091954.5836676-.1434482 1.0229226c.0597701.439255.4363218.312894.6036781.2707737.1255173-.0842407.2689656-.1684814.3944828-.2286533l-4.2616092 5.6080229-5.8216092-2.5512894c.1852874-.565616.8308046-2.4911175.8547126-2.5753582.6455173-.2106017 1.2491954-.3971346 1.2491954-.3971346.0597702-.1444126.1255173-.3550144.2689656-.6077364.1434482-.2527221-.1852874-.186533-.1852874-.186533s-.5618391.4212035-.8128736.499427c-.3347126.1865329-.2091954-.186533-.2091954-.186533s.496092-1.0229226.6634483-1.4441261c.1673563-.4212034.6216092-.4212034 1.016092-.5836676.3944827-.1624642 3.0124138-1.0048711 3.4487356-1.1733524.4363218-.1684814.3526437-.8363897.3526437-.8363897s-.4781609.2527221-.8308046.3550143c-.3526437.1022923-2.7852874 1.0469914-3.0781609 1.191404-.2689656.1444126-.1434483-.1022922-.1434483-.312894 0-.1865329-.1434483-.1022922-.1434483-.1022922s-.3347126.1684814-.537931.2286533c-.2271265.0601719-.3526437.439255-.3526437.439255s-2.18160919 1.004871-2.65977011 1.5464183.26896551.312894.26896551.312894 2.097931-1.2575931 1.9305747-.9446991-.8965517 2.0097421-.8965517 2.0097421-.68735633.4813753-.93839081.6679083c-.25103449.186533-.14344828.5836676-.14344828.5836676s.99816089-.8183381.89655169-.5415473c-.0836781.2106018-.41839077 1.4621777-.51999996 1.8653296l-8.25425288-3.7065903 5.07448276-1.3598854zm10.49563221 10.06676219s.5618391-.6679083.6455172-.87851c.0836782-.2106018.4183908-.2286533.3944828 0-.0239081.2286533-.5797701.7340974-.5797701.7340974s-.2689656.312894-.3944828.312894-.0657471-.1684814-.0657471-.1684814zm3.8910345-1.1131805s-.1852874.0180516-.1434483-.2707737c.017931-.2948424.1016092-.252722.2510345-.3790831.1434482-.126361.2689655-.2948424.2689655-.0601719s-.0179311.3790831-.1434483.5234957c-.1554023.1684814-.2331034.186533-.2331034.186533z" fill="#ec008c"/><g fill="#fff"><path d="m.35862069 8.65272206 3.05425287-.79426934c.56183908-.14441261 1.01609196-.21060172 1.39264368-.21060172.39448276 0 .7291954.06017192.99816092.18653295.26896552.12636104.46022989.31289399.60367816.58366763.05977012.10229226.1016092.22865329.12551724.37908309.20919541 1.06504298-.53793103 1.82320913-2.26528735 2.28051573l-1.05793104.2707737.35264368 1.4862464-2.09793103.5415473zm12.19908041-3.05673352c.0836782-.04212035.1673564-.08424069.2271265-.12636103.3944827-.2286533.8547126-.42120344 1.3926437-.56561605.2928735-.08424069.537931-.12636103.7710344-.16848137.2271265-.01805158.4602299-.01805158.7291954-.01805158.4602299.01805158.8547127.12636103 1.1834483.31289398.3347127.18653295.5797701.43925502.7710345.79426934l.017931.01805158-1.1236781.29484241v.5234957l1.3328735-.33696275.6036782 2.61747851-1.3328736.33696275-.2091954-.43925502c-.1016092.14441261-.2271264.29484241-.3944827.42120344-.3526437.29484241-.8128736.49942694-1.3747127.64985674-.8128735.21060171-1.5360919.21060171-2.1397701.01805157-.6216092-.21060172-1.057931-.56561604-1.3089655-1.08911175l-.1255172-.27077363-.0597702-.25272207c-.1673563-.73409742-.017931-1.4260745.4183909-2.05186246.1255172-.2286533.3526436-.45730659.6216091-.66790831zm-9.83218386 3.5982808.22712644 1.04699136.91448276-.2286533c.26896551-.06017187.46022988-.1865329.57977011-.3369627.12551724-.16848138.14344828-.33696275.05977012-.49942693-.12551724-.25272207-.52-.29484241-1.16551724-.12636104.01195402-.01805157-.61563219.14441261-.61563219.14441261zm4.38712644-2.3226361 2.13977011-.54154728 3.38896551 4.12177654-2.08.5415472-.4183908-.565616-2.07999999.5415473-.08367817.6919771-2.03816091.5234957zm1.12367816 3.01461318 1.33287356-.33696275-1.04-1.52836676zm12.70114946-6.73925502c.9383908-.25272206 1.7273563-.25272206 2.3489655-.01805157.2928735.10229226.5797701.25272206.8128735.46332378.1016092.10229226.2091954.21060172.3108046.31289398.0836782.10229227.1673564.25272207.2510345.39713467l.1255173.2286533.0597701.21060172c.1255172.43925501.1016092.87851003-.0597701 1.34183381-.1673564.46332378-.478161.87851003-.9383908 1.23352435-.478161.3790831-1.0579311.64985674-1.7452874.83638969-.9563218.25272206-1.7452874.25272206-2.3908046.01805157-.6455172-.22865329-1.0818391-.60773638-1.3508046-1.10716332l-.0597701-.18653295-.0836782-.21060172-.0597701-.18653295c-.0836781-.46332378-.0597701-.9025788.1016092-1.31776504.1673563-.42120344.4602299-.79426934.9383908-1.17335244.4303448-.37908309 1.034023-.6739255 1.7393104-.84240688zm.2510344 1.14928367c-.9144827.2286533-1.1834482.92063037-.7889655 2.06991404.2928736.56561605.7710345.77621777 1.4165518.60773639.52-.12636103.8308046-.42120344.9383908-.83638968.1016092-.42120344.0597701-.83638969-.1434483-1.23352436-.1255173-.27077364-.3108046-.46332378-.5618391-.56561604-.2390805-.12034384-.525977-.12034384-.8606897-.04212035z"/><path d="m1.4583908 11.1077364c-.05977011 0-.12551724-.0180516-.16735632-.0421204-.08367816-.0421203-.12551724-.126361-.14344827-.2106017l-1.09977012-4.72951287c-.04183908-.16848137.05977012-.35501432.25103449-.39713467l3.05425287-.79426934c.62160919-.16848137 1.09977011-.22865329 1.47632184-.21060172.43632184 0 .8308046.06017192 1.12367816.21060172.22712644.10229226.4183908.27077364.57977011.46332378l.26896552-1.17335243c.01793103-.12636103.12551724-.2286533.25103448-.25272207l2.13977012-.54154727c.12551724-.04212035.25103448.01805157.33471264.10229226l1.53609198 1.88338109c-.0597701-.66790831.1255172-1.31776504.537931-1.90744986.1852874-.27077364.4183908-.49942693.7052874-.71002865.041839-.04212034.0836781-.08424069.1434482-.10229226.0179311-.01805158.0418391-.01805158.0597702-.04212035.041839-.01805157.0597701-.04212034.1016092-.06017192h.017931c.4183908-.25272206.9144827-.43925501 1.4763218-.60773639.3108046-.08424069.5797701-.12636103.8128736-.16848137.1434483-.01805158.2928736-.01805158.4602299-.01805158h.3347126c.496092.01805158.9563219.14441261 1.3328736.35501433.3347126.18653295.6036781.43925501.7889655.75214899.017931-.16848137.0597701-.31289398.1255172-.46332378.1852874-.48137536.52-.90257879 1.04-1.31776504.496092-.39713467 1.1416092-.69197708 1.8947127-.9025788.52-.12636103.9981609-.21060172 1.4344827-.21060172.4183908 0 .7889656.06017192 1.1236782.18653296.3347126.12636103.6455172.2948424.9144828.5234957.1255172.12636103.2510344.22865329.3526436.35501432.1016092.14441261.2091954.29484241.2928736.43925502l.1255172.22865329c0 .01805158.0179311.04212035.0179311.06017192l.0597701.21060172c.1434483.49942694.1016092 1.02292264-.0836782 1.54641834-.1852873.5234957-.537931.98080229-1.057931 1.40200573-.496092.39713467-1.1416092.71002865-1.8708046.9025788-.52.12636103-.9981609.21060172-1.4344828.21060172-.4183908 0-.7889655-.06017192-1.1416092-.18653295-.4363218-.16848138-.7889655-.3790831-1.081839-.64985674l.2510344 1.04699141c.0418391.16848137-.0597701.35501432-.2510344.39713467l-1.3328736.33696275c-.1434483.04212034-.3108046-.01805158-.3765517-.16848138-.0179311.01805158-.0179311.01805158-.0418391.04212035-.017931.04212034-.0597701.06017192-.1016092.08424068-.3765517.29484241-.8726437.52349571-1.4524138.69197708-.4602299.12636103-.8726437.16848138-1.2671264.16848138-.3526437 0-.6873563-.04212035-.9981609-.14441261.041839.08424069.041839.16848137.017931.25272206-.0418391.10229227-.1255173.18653295-.2271264.2286533l-2.08.54154727c-.1255173.04212035-.2689656-.01805157-.3526437-.12636103l-.2689655-.37908309-1.6436782.43925501-.05977012.46332379c-.01793103.12636103-.12551724.25272206-.25103448.27077363l-2.03816092.52349571c-.1016092.01805157-.22712644 0-.3108046-.08424069s-.12551724-.21060172-.08367816-.31289398l.3108046-1.35988539c-.39448276.25272206-.91448276.46332378-1.56.62578796l-.74712644.18653296.26896552 1.14928365c.04183908.186533-.05977012.3550143-.25103449.3971347l-2.09793103.5415473c-.07770115.0541547-.11954023.0541547-.14344828.0541547zm-.68735632-4.81375359.93839081 4.06160459 1.43448276-.3790831-.26896552-1.13123209c-.04183908-.18653295.05977011-.35501433.25103448-.39713467l1.08183908-.27077364c1.49425288-.39713467 1.93057471-.94469914 2.03816092-1.35988539v-.04212034c.04183908-.21060172 0-.35501433-.01793103-.46332379-.01793104-.12636103-.05977012-.22865329-.1016092-.31289398-.10160919-.21060172-.25103448-.33696275-.43632184-.43925501-.2091954-.10229227-.49609195-.14441261-.8308046-.14441261h-.01793103c-.01793103 0-.05977011 0-.08367816 0-.3108046 0-.70528736.06017192-1.22528736.18653295zm6.63448276-1.73896848-1.01609195 4.58510028 1.29103448-.33696275.05977012-.46332378c.01793103-.12636103.12551724-.25272206.25103448-.27077364l2.09793103-.54154728c.1255172-.04212034.2689655.01805158.3526437.12636103l.2689655.3790831 1.3508046-.35501433-2.9108046-3.55616046zm4.53057476 1.5704871c.2271264.43925502.5797701.73409742 1.1236781.9025788.2689655.08424069.5618391.12636103.8726437.12636103.3347126 0 .7052873-.04212034 1.0997701-.14441261.52-.1444126.9383908-.33696275 1.2252874-.58366762 0 0 0 0 .017931-.01805157.1255172-.10229227.2510345-.2286533.3347126-.35501433.0597702-.10229226.1852874-.14441261.3108046-.12636103.1255173.01805157.2271265.08424069.2689656.18653295l.0836781.18653295.7471265-.18653295-.4363219-1.94355301-.9981609.25272206c-.1016092.01805158-.2091954 0-.2928736-.06017192-.0836781-.06017192-.1255172-.16848137-.1255172-.27077364v-.5234957c0-.14441261.1016092-.2948424.2510345-.33696275l.6634483-.16848137c-.1016092-.12636104-.2510345-.2286533-.3944828-.31289399-.2928736-.16848137-.6455172-.25272206-1.04-.27077364-.1016092 0-.2091954 0-.2928736 0-.1434482 0-.2510345 0-.3765517.01805158-.2091954.01805158-.4363218.08424069-.7291954.14441261-.496092.12636103-.9383908.31289398-1.2910345.5234957-.0418391.01805158-.0597701.04212034-.1016092.06017192-.017931.01805158-.0418391.04212034-.0836781.04212034l-.0179311.01805158c-.2510345.18653295-.4602299.37908309-.6216092.60773639-.3944827.54154728-.52 1.13123209-.3765517 1.78108882l.0418391.2286533zm6.7181609-1.7991404c.2271264.42120344.6036781.73409742 1.1416092.92063037.2689655.08424069.5797701.14441261.9144827.14441261.3765518 0 .8128736-.06017192 1.2671265-.18653295.6455172-.16848138 1.2073563-.42120344 1.6436781-.77621776.4183908-.33696276.6873563-.69197708.8308046-1.10716333.1434483-.39713467.1673563-.77621776.0597701-1.13123209l-.041839-.16848138-.1016092-.21060171c-.0597702-.12636104-.1255173-.2286533-.2091954-.33696276-.0597702-.08424068-.1673564-.16848137-.2510345-.27077363-.2091954-.16848138-.4363219-.29484241-.7052874-.39713467-.5618391-.21060172-1.3089655-.18653296-2.1636781.04212034-.6634483.16848137-1.2073564.43925501-1.6436782.77621776-.4183908.33696275-.6873563.66790831-.8308046 1.02292264-.1255172.33696275-.1673563.71002865-.0836782 1.10716332l.0418391.16848138.0597701.21060172v.01805157zm-15.71954026 3.66446992c-.05977011 0-.12551724-.01805158-.16735632-.04212035-.08367816-.04212034-.12551724-.12636103-.14344827-.21060172l-.22712644-1.0469914c-.04183908-.16848138.05977011-.35501433.25103448-.39713467l.6216092-.16848138c.29287356-.06017192.52-.10229226.7291954-.10229226.49609195 0 .7291954.22865329.81287356.42120344.14344828.2948424.1016092.58366762-.10160919.86045845-.18528736.2286533-.43632184.37908309-.77103449.46332378l-.91448275.2286533c-.02988506-.00601719-.0478161-.00601719-.08965518-.00601719zm.16735633-1.14928367.08367816.39713467.56183908-.14441261c.18528735-.04212034.33471264-.12636103.4183908-.22865329.05977012-.08424069.04183908-.10229227.01793104-.14441261 0-.01805158-.08367816-.04212035-.22712644-.04212035s-.33471264.01805158-.56183908.08424069zm5.13425287.79426934c-.08367816 0-.16735632-.01805158-.22712644-.08424069-.08367816-.08424069-.12551724-.18653295-.10160919-.29484241l.26896551-1.86532951c.01793104-.14441261.12551725-.25272206.25103449-.27077364.12551724-.01805157.26896551.01805158.35264368.12636103l1.04 1.52836677c.05977011.08424068.08367816.21060172.04183908.31289398s-.12551725.18653295-.22712644.21060172l-1.33287356.33696275c-.00597702 0-.0478161 0-.06574713 0zm.47816092-1.31776504-.08367816.5234957.37655172-.10229227zm12.65931034-1.52836677c-.5618391 0-1.016092-.2948424-1.2910345-.83638968 0-.01805158-.017931-.01805158-.017931-.04212034-.2510345-.73409743-.2510345-1.31776505-.017931-1.75702006.1852873-.35501433.537931-.60773639 1.04-.752149.4363218-.10229226.8128735-.08424069 1.0997701.06017192.3108046.14441261.537931.39713467.7052873.71002865.2510345.48137536.2928736.96275072.1673563 1.46217765-.1016092.3790831-.3944827.86045846-1.1834482 1.06504298-.1673564.06618912-.3347127.09025788-.502069.09025788zm-.6873563-1.13123209c.1673563.31289398.3765517.46332378.6873563.46332378.1016092 0 .2091954-.01805157.3347126-.04212034.52-.14441261.6634483-.39713467.7052874-.58366762.0836782-.33696275.0597701-.66790831-.1255172-1.00487106-.1016092-.21060172-.2271265-.33696275-.3944828-.42120344 0 0 0 0-.017931 0-.1434483-.08424069-.3765518-.08424069-.6216092-.01805158-.3108046.08424069-.52.21060172-.6216092.42120344-.1314943.24068768-.1075862.63782235.0537931 1.18538682z" transform="translate(0 2.587393)"/><path d="m23.4358621 5.53581662c0 .79426934-.8128736 1.44412607-1.8110345 1.44412607s-1.8110345-.64985673-1.8110345-1.44412607.8128736-1.44412608 1.8110345-1.44412608 1.8110345.62578797 1.8110345 1.44412608z"/></g><g fill="#005caa"><path d="m.44229885 8.65272206 3.05425287-.81833811c.56183908-.1444126 1.01609196-.21060172 1.39264368-.21060172.39448276 0 .7291954.06017192.99816092.18653296.26896552.12636103.46022989.31289398.60367816.58366762.05977012.10229226.1016092.22865329.12551724.37908309.20919541 1.06504298-.53793103 1.8232092-2.26528735 2.2805158l-1.08183908.2948424.35264368 1.4862464-2.09793104.5415473zm2.34896552.54154728.22712643 1.04699136.91448276-.2286533c.26896552-.06017187.46022989-.1865329.57977012-.3369627.12551724-.16848138.14344827-.33696275.05977011-.49942693-.12551724-.25272207-.52-.29484241-1.16551724-.12636104.00597701-.01805157-.61563218.14441261-.61563218.14441261zm4.40505747-2.3226361 2.13977011-.54154728 3.38896555 4.12177654-2.08.5415472-.3944828-.565616-2.09793102.5415473-.08367816.6919771-2.03816092.5234957zm1.09977011 3.01461318 1.33287357-.33696275-1.04-1.52836676zm6.96919545-1.78108883-.2271265-1.02292263 2.8689655-.752149.6036782 2.61747851-1.3328736.33696275-.2091954-.43925501c-.3765517.49942693-.9742528.86045845-1.7871264 1.08911174-.8128736.21060175-1.536092.21060175-2.1397701.01805158-.6216092-.21060172-1.0579311-.56561605-1.3089655-1.08911175l-.1255173-.27077364-.0597701-.25272206c-.1673563-.73409742-.017931-1.4260745.4183908-2.05186246.2271264-.31289399.537931-.60773639.9383908-.83638969.3944828-.22865329.8547127-.42120344 1.3926437-.56561604.2928736-.08424069.537931-.12636104.7710345-.16848138.2271264-.01805158.4602299-.01805158.7291954-.01805158.4602299.01805158.8547126.12636104 1.1834483.31289399.3347126.18653295.5797701.43925501.7710344.79426934l.0179311.01805157-1.9963219.52349571c-.2510344-.35501433-.6455172-.46332379-1.2252873-.31289399-.9144828.2286533-1.1834483.94469914-.7710345 2.11203439.2689655.54154727.7710345.71002865 1.4942529.5234957.2271264-.06017192.4363218-.16848138.6216092-.33696275.1852873-.16848138.3108046-.33696275.3108046-.49942694zm5.737931-4.95816619c.9383908-.25272206 1.7273563-.25272206 2.3489655-.01805157.2928736.10229226.5797701.25272206.8128736.46332378.1016092.10229226.2091954.21060172.3108046.31289398.0836781.10229227.1673563.25272207.2510345.39713467l.1255172.2286533.0597701.21060172c.1255172.43925501.1016092.87851003-.0597701 1.34183381s-.4781609.87851003-.9383908 1.25759312c-.4781609.3790831-1.057931.64985674-1.7452874.83638969-.9563218.25272206-1.7452873.25272206-2.3908046.01805157-.6455172-.22865329-1.081839-.60773639-1.3508046-1.10716332l-.0597701-.18653295-.0836781-.21060172-.0597702-.18653295c-.0836781-.46332379-.0597701-.9025788.1016092-1.31776505.1673564-.42120343.4602299-.79426934.9383908-1.17335243.4482759-.40315186 1.028046-.69799427 1.7393104-.86647565zm.2450575 1.14928367c-.9144828.2286533-1.1834483.92063037-.7889656 2.06991404.2928736.56561605.7710345.77621777 1.4165518.60773639.52-.12636103.8308046-.42120344.9383908-.83638968.1016092-.42120344.0597701-.83638969-.1434483-1.23352436-.1255172-.27077364-.3108046-.46332378-.5618391-.56561604-.2151724-.12034384-.5020689-.12034384-.8606896-.04212035z"/><path d="m.44229885 8.65272206 3.05425287-.81833811c.56183908-.1444126 1.01609196-.21060172 1.39264368-.21060172.39448276 0 .7291954.06017192.99816092.18653296.26896552.12636103.46022989.31289398.60367816.58366762.05977012.10229226.1016092.22865329.12551724.37908309.20919541 1.06504298-.53793103 1.8232092-2.26528735 2.2805158l-1.08183908.2948424.35264368 1.4862464-2.09793104.5415473zm2.34896552.54154728.22712643 1.04699136.91448276-.2286533c.26896552-.06017187.46022989-.1865329.57977012-.3369627.12551724-.16848138.14344827-.33696275.05977011-.49942693-.12551724-.25272207-.52-.29484241-1.16551724-.12636104.00597701-.01805157-.61563218.14441261-.61563218.14441261zm4.40505747-2.3226361 2.13977011-.54154728 3.38896555 4.12177654-2.08.5415472-.3944828-.565616-2.09793102.5415473-.08367816.6919771-2.03816092.5234957zm1.09977011 3.01461318 1.33287357-.33696275-1.04-1.52836676zm6.96919545-1.78108883-.2271265-1.02292263 2.8689655-.752149.6036782 2.61747851-1.3328736.33696275-.2091954-.43925501c-.3765517.49942693-.9742528.86045845-1.7871264 1.08911174-.8128736.21060175-1.536092.21060175-2.1397701.01805158-.6216092-.21060172-1.0579311-.56561605-1.3089655-1.08911175l-.1255173-.27077364-.0597701-.25272206c-.1673563-.73409742-.017931-1.4260745.4183908-2.05186246.2271264-.31289399.537931-.60773639.9383908-.83638969.3944828-.22865329.8547127-.42120344 1.3926437-.56561604.2928736-.08424069.537931-.12636104.7710345-.16848138.2271264-.01805158.4602299-.01805158.7291954-.01805158.4602299.01805158.8547126.12636104 1.1834483.31289399.3347126.18653295.5797701.43925501.7710344.79426934l.0179311.01805157-1.9963219.52349571c-.2510344-.35501433-.6455172-.46332379-1.2252873-.31289399-.9144828.2286533-1.1834483.94469914-.7710345 2.11203439.2689655.54154727.7710345.71002865 1.4942529.5234957.2271264-.06017192.4363218-.16848138.6216092-.33696275.1852873-.16848138.3108046-.33696275.3108046-.49942694zm5.737931-4.95816619c.9383908-.25272206 1.7273563-.25272206 2.3489655-.01805157.2928736.10229226.5797701.25272206.8128736.46332378.1016092.10229226.2091954.21060172.3108046.31289398.0836781.10229227.1673563.25272207.2510345.39713467l.1255172.2286533.0597701.21060172c.1255172.43925501.1016092.87851003-.0597701 1.34183381s-.4781609.87851003-.9383908 1.25759312c-.4781609.3790831-1.057931.64985674-1.7452874.83638969-.9563218.25272206-1.7452873.25272206-2.3908046.01805157-.6455172-.22865329-1.081839-.60773639-1.3508046-1.10716332l-.0597701-.18653295-.0836781-.21060172-.0597702-.18653295c-.0836781-.46332379-.0597701-.9025788.1016092-1.31776505.1673564-.42120343.4602299-.79426934.9383908-1.17335243.4482759-.40315186 1.028046-.69799427 1.7393104-.86647565zm.2450575 1.14928367c-.9144828.2286533-1.1834483.92063037-.7889656 2.06991404.2928736.56561605.7710345.77621777 1.4165518.60773639.52-.12636103.8308046-.42120344.9383908-.83638968.1016092-.42120344.0597701-.83638969-.1434483-1.23352436-.1255172-.27077364-.3108046-.46332378-.5618391-.56561604-.2151724-.12034384-.5020689-.12034384-.8606896-.04212035z" fill-opacity=".9412"/></g></g></g></svg>