<svg height="26" viewBox="0 0 42 26" width="42" xmlns="http://www.w3.org/2000/svg"><g fill="none" fill-rule="evenodd"><path d="m0 0h42v26h-42z" fill="#f8f8f8" fill-rule="evenodd"/><path d="m.5.5h41v25h-41z" stroke="#e5e5e5"/><g fill="#00579f" fill-rule="nonzero" transform="translate(5 5)"><path d="m15.4807547.70137931h-2.5177358l-1.5698114 10.01172409h2.5177359z"/><path d="m18.2883019 10.862069c2.6384906 0 4.3592453-1.34068969 4.3833962-3.42000003 0-1.14206897-.6641509-2.01103449-2.1132075-2.72482759-.8815095-.45931035-1.418868-.76965517-1.418868-1.24137931s.458868-.86275862 1.4490566-.86275862c.6461297-.01889984 1.2880517.11265715 1.8777359.38482758l.229434.10551725.3441509-2.16c-.7203193-.28561509-1.4860745-.43084893-2.2581132-.42827587-2.4875472 0-4.2264151 1.36551725-4.2264151 3.31448276 0 1.44 1.2558491 2.23448276 2.2098113 2.71862069.9539623.48413793 1.304151.80689655 1.304151 1.24137931 0 .67034483-.7909434.98068966-1.5154717.98068966-.8175215.02300984-1.6280743-.16026525-2.3607548-.53379311l-.3562264-.14275862-.3501886 2.2468966c.8940655.3517697 1.8442252.5286007 2.8015094.5213793zm10.8981132-.1489656h2.330566l-2.0286792-10.01172409h-1.944151c-.5733562-.07047065-1.1184862.2739973-1.3162264.83172414l-3.7433962 9.17999995h2.6445283l.525283-1.50206892h3.2301887c.0784906.35379311.3018868 1.50206892.3018868 1.50206892zm-2.8075472-3.54413788 1.0083019-2.79931035s.205283-.58344827.3320755-.96206896l.1750943.86275862s.4769812 2.39586207.6037736 2.89862069zm-17.09283016-6.46758621-2.46339623 6.82758621-.27169811-1.38413793-.88150944-4.59931035c-.11434826-.53930437-.6077969-.90164274-1.14113207-.83793103h-4.04528302l-.04226415.20482758c.93067823.24398319 1.82305921.62222084 2.65056603 1.12344828l2.24 8.68965513h2.66264151l3.95471694-10.02413789zm6.46037736 12.15310349c-.2075416-.1781434-.4541312-.3016973-.7184906-.36-.2910278-.0511506-.5865738-.0698796-.8815094-.0558621h-1.690566v5.0524138h1.7750943c.2640519.0029289.5275149-.026239.7849057-.0868966.2145844-.0465522.4191615-.1327788.6037735-.2544827.1739577-.1250105.325189-.2804789.4467925-.4593104.1515748-.2253426.2658232-.4749223.3381132-.7386207.0873495-.335774.1260051-.6829646.114717-1.0303448.0070085-.4100915-.0584552-.8180848-.1932076-1.2041379-.1173678-.3342827-.3170794-.6315501-.5796226-.8627586zm0 3.0289655c-.0728937.2327003-.1968391.4450637-.3622642.6206896-.1249352.121315-.275941.2106292-.4407547.2606897-.2475709.070274-.5040546.1016633-.7607547.0931034h-1.074717v-3.835862h1.0324529c.2835168-.013239.5671886.0224267.8392452.1055172.2570029.1166949.4692727.3174547.6037736.5710345.1935022.3821174.2812196.8115221.2535849 1.2413793.0091267.3186734-.0295663.6368897-.1147169.9434483zm3.0550943-2.1475862c-.4554356-.0193787-.8964269.1664935-1.2075471.5089655-.3292921.398263-.495894.9120719-.4649057 1.4337931-.0311487.5074902.1337479 1.0071182.4588679 1.3903448.6239483.5827055 1.5517898.6592165 2.2581132.1862069.2750282-.2186258.4689303-.527485.549434-.8751724l-.6037736-.0806897c-.0674022.2240655-.197619.4227042-.3743396.5710345-.1647499.1225904-.3642484.1858622-.5675472.18-.2850464.0091624-.5600953-.1084637-.754717-.3227586-.2154108-.25711-.3333255-.5855014-.3320754-.9248276h2.6566037v-.1675862c.0317899-.5121588-.1304903-1.0170881-.4528301-1.4089655-.3013317-.3287562-.7262037-.5075401-1.1652831-.4903448zm-1.0083019 1.557931c.0035205-.2844836.1113302-.5571258.3018868-.7634483.1858578-.1893104.4388255-.2924357.7003774-.2855172.2907749-.0078661.5681709.1255189.7486792.36.1429015.2026473.2228772.4449692.229434.6951724z"/><path d="m18.9464151 13.3634483.7366038-.9682759h-.7909434l-.4467925.9682759z"/><path d="m23.8369811 14.2510345c-.1280788-.1668407-.293901-.2989535-.4830188-.3848276-.1898271-.0881972-.3954671-.1347056-.6037736-.1365517-.383261-.0053996-.7462546.1765753-.9781132.4903448v-1.7813793h-.6037736v5.0524138h.5494339v-.4593104c.2145622.3466627.5906644.5517703.9901887.54.418436.0014197.8161453-.1871065 1.0867925-.5151724.3233785-.4082945.4850812-.9269419.4528302-1.4524138.0008292-.2525128-.0358188-.5036779-.1086793-.7448276-.063294-.2201558-.1656437-.4263816-.3018868-.6082758zm-.501132 2.4455172c-.1783579.2432088-.4655651.3754165-.7608301.3502267s-.5573442-.2042587-.6942643-.4743646c-.133939-.298733-.1901122-.6281051-.1630189-.9558621-.0241437-.3658586.0785294-.7286856.2898114-1.0241379.1621187-.2198579.4139166-.3504295.6822641-.3537931.2628797.0004693.5105833.1266441.6701887.3413793.2091377.3101538.3072827.685219.2777358 1.0613793.0231822.3772731-.0837067.7508772-.3018867 1.0551724z"/><path d="m24.9781132 12.4262069h.6037736v.7137931h-.6037736zm0 1.3903448h.6037736v3.662069h-.6037736z"/><path d="m27.5562264 16.9448276c-.070973.0046072-.1418524-.0103944-.205283-.0434483-.0452738-.0274276-.0811405-.0686371-.1026415-.117931-.0276773-.1114153-.0378685-.2266597-.0301887-.3413793v-2.1413793h.6037736v-.484138h-.6037736v-1.2786207l-.6037736.3724138v.9062069h-.4407547v.484138h.4407547v2.1041379c-.015631.2465811.0088559.4941155.0724529.7324138.0538585.1181973.1425919.2159325.2535849.2793103.157603.0788597.3321412.1151726.5071698.1055173.1544202-.0023095.3081941-.0210297.4588679-.0558621l-.0845283-.5462069zm3.5018868-2.7186207c-.3159712-.3338141-.754798-.5142627-1.2075472-.4965517-.4108431-.0115968-.8111752.1344365-1.1230188.4096551-.3961121.3911226-.5982007.945885-.549434 1.5082759-.0352788.5174512.1296369 1.0282902.4588679 1.4213793.3170209.3315363.7557116.5096741 1.2075472.4903448.2997109.0024502.594983-.0745049.8573585-.2234482.2568863-.1404791.4671231-.3566061.6037736-.6206897.1527995-.3484878.2231467-.7292219.205283-1.1110345.0370057-.5034255-.1264207-1.0007207-.4528302-1.377931zm-.4528302 2.4827586c-.1891502.2215073-.4619646.3484979-.7486792.3484979-.2867147 0-.5595291-.1269906-.7486793-.3484979-.2199248-.3031528-.3250784-.6781925-.295849-1.0551724-.0282944-.3749582.0768389-.7477199.295849-1.0489655.1891502-.2215073.4619646-.3484979.7486793-.3484979.2867146 0 .559529.1269906.7486792.3484979.2199258.2938785.3273403.6604861.3018868 1.0303448.0256936.3794798-.0813732.7559069-.3018868 1.0613793z"/></g></g></svg>